<svg width="115" height="39" viewBox="0 0 115 39" fill="none" xmlns="http://www.w3.org/2000/svg">
<path d="M114.772 24.551C114.745 24.3582 114.478 24.1884 114.376 24.0147C114.31 23.9021 114.262 23.778 114.17 23.6807C113.983 23.4822 113.817 23.3123 113.619 23.2284C113.355 23.1158 112.959 23.2665 112.668 23.2894C112.308 23.3181 112.185 23.2837 111.771 23.3887C111.411 23.4803 111.067 23.5566 110.728 23.6253C110.141 23.7437 109.567 23.8315 108.951 23.9154C108.451 23.9841 107.951 24.0586 107.448 24.1273C106.986 24.1903 106.64 24.1864 106.178 24.238C105.808 24.2781 105.321 24.3601 104.952 24.3964C104.338 24.4555 103.672 24.4689 103.098 24.4784C102.603 24.4861 102.107 24.4842 101.612 24.4708C100.921 24.4536 100.228 24.4384 99.539 24.4021C98.9289 24.3697 97.6508 24.2838 97.6239 24.28C96.6865 24.1502 95.7452 24.0242 94.8098 23.8811C94.2188 23.7914 94.3112 22.8772 94.1284 22.3848C93.8897 21.7397 93.5413 21.1347 93.1102 20.5984C92.2363 19.5087 90.9948 18.6785 89.5993 18.4342C89.426 18.4037 89.2509 18.3865 89.0815 18.3464C88.8967 18.3025 88.7196 18.209 88.5349 18.188C88.2269 18.1556 87.9151 18.167 87.6071 18.1498C87.5628 18.1479 87.5185 18.0849 87.4781 18.0468C87.3184 17.8998 87.1682 17.7433 86.9988 17.6059C86.8179 17.4589 86.6081 17.3444 86.4387 17.1879C86.1827 16.9513 85.3262 16.812 85.0721 17.0372C84.7834 17.2948 84.5197 17.5945 84.2983 17.9132C83.9692 18.3865 83.692 18.8941 83.3783 19.3808C83.18 19.6881 82.9529 19.9763 82.7469 20.2778C82.566 20.5431 82.4005 20.8179 82.2234 21.087C82.0328 21.3752 81.798 21.6424 81.6498 21.9516C81.5362 22.1863 81.3822 22.3428 81.1801 22.4879C81.107 22.5413 81.0685 22.6463 81.0261 22.7322C80.9953 22.7951 80.5353 23.2207 80.3601 23.402C80.1195 23.6502 79.9579 23.9899 79.6884 24.1922C79.3958 24.4116 79.2052 24.6865 78.982 24.9537C78.7356 25.2495 77.8733 26.1179 77.6153 26.2973C77.4787 26.5015 76.7107 27.284 76.6241 27.3698C76.243 27.7515 74.8686 29.2268 74.5741 29.5761C74.039 30.2078 72.2605 31.9178 72.018 32.1354C71.8236 32.311 71.4617 32.6507 71.25 32.8034C70.8381 33.103 68.9075 34.9008 67.8623 34.7462C67.4677 34.6871 67.1539 34.3664 66.9884 34.0076C66.8248 33.6488 66.7902 33.2442 66.7805 32.8492C66.744 31.0666 67.9354 28.4577 68.6341 26.8106C69.3059 25.2323 70.2106 23.7227 71.1479 22.2894C72.2374 20.6233 73.3904 18.9991 74.5414 17.375C75.602 15.8787 76.7088 14.6019 77.9021 13.2068C78.3275 12.7087 78.7914 12.014 79.3612 11.6666C79.9906 11.2849 80.9588 11.4147 81.6902 11.4261C81.9135 11.43 82.2465 11.4319 82.4697 11.4395C83.3301 11.4624 84.1925 11.4758 85.0528 11.5044C85.3647 11.5139 85.6784 11.5636 85.9902 11.5578C86.7217 11.5464 87.4531 11.4987 88.1845 11.4929C89.0045 11.4872 89.8245 11.5101 90.6445 11.5197C91.7089 11.5311 91.2912 11.5006 92.3556 11.5044C92.9369 11.5063 93.5182 11.47 94.0995 11.4872C95.3776 11.5273 95.4392 11.6265 96.7057 11.5407C98.1185 11.4452 98.0743 11.6857 99.4967 11.4319C99.9779 11.346 100.436 11.2658 100.6 10.7906C100.744 10.3746 100.575 9.76765 100.334 9.42221C99.9933 8.93554 99.4005 8.67026 98.8095 8.5901C97.799 8.45269 98.1301 8.55575 97.1003 8.48322C96.1263 8.41452 96.367 8.36871 95.3911 8.31718C95.3372 8.31528 94.1034 8.30383 93.8358 8.30192C93.4489 8.2981 91.1526 8.27711 90.3923 8.27329C89.6493 8.26947 88.2288 8.38971 87.5205 8.40116C86.8564 8.41261 86.2001 8.35535 85.5379 8.2981C84.8046 8.23512 84.0616 8.26184 83.3224 8.26947C82.9548 8.27329 82.5872 8.321 82.1444 8.35535C82.2157 8.18741 82.2561 8.07862 82.3081 7.97556C82.3927 7.80952 82.4851 7.64539 82.5775 7.48317C82.5949 7.45263 83.3706 6.4602 83.6381 5.95063C83.7921 5.65672 84.4619 4.50207 84.6525 4.25206C84.9528 3.85891 84.4196 3.3875 84.2925 3.33407C84.0866 3.24818 83.8922 2.93328 83.744 2.8474C83.13 2.48669 83.13 2.48669 82.7527 2.24812C82.5506 2.12025 82.3061 2.05345 82.0752 1.98093C81.9712 1.94849 81.8172 1.91795 81.7402 1.96948C81.4342 2.1756 81.1339 2.39508 80.8644 2.64509C80.7182 2.7806 80.6431 2.98862 80.5295 3.16039C80.1561 3.73104 79.5575 4.10129 79.2072 4.71201C78.8626 5.3151 78.3121 5.7865 77.9291 6.38196C77.5557 6.96023 77.1168 7.50034 76.6837 8.04045C76.499 8.27138 76.2968 8.49658 75.9273 8.47941C75.5404 8.46032 75.1477 8.49849 74.7608 8.53285C74.1853 8.58438 73.6117 8.66453 73.0362 8.71225C72.2143 8.78095 71.4155 9.01188 70.686 9.38977C70.3915 9.54245 70.0874 9.72185 69.9141 10.0062C69.6312 10.4719 69.7775 11.0654 69.9315 11.5865C70.7668 11.8308 71.6388 11.9453 72.5088 11.9262C73.3788 11.9071 73.9293 11.8441 73.3191 12.7736C73.2518 12.8785 71.377 15.9627 71.2249 16.2089C70.994 16.5829 69.1962 19.0239 68.8285 19.5507C68.4763 20.0545 67.6352 20.9572 67.6178 20.9763C67.3484 21.2645 67.077 21.5527 66.8036 21.839C66.5727 22.0794 66.3378 22.3142 66.1068 22.5528C66.076 22.5967 63.2292 25.2686 62.827 25.6484C62.5902 25.8717 62.2341 26.2381 61.9781 26.4404C61.751 26.6198 61.5893 26.7954 61.3622 26.971L61.187 27.1122C60.7732 27.4653 60.4652 27.7096 59.8377 28.2859C59.7338 28.3813 59.0274 28.9558 58.6347 29.265C57.9398 29.8108 57.2276 30.3338 56.5155 30.8567C56.1055 31.1582 55.6762 31.435 55.2605 31.7308C55.1873 31.7823 55.0776 31.8816 55.0045 31.9255C54.6099 32.1602 54.2018 32.3778 53.8053 32.6087C53.0777 33.0343 52.2809 33.3416 51.4551 33.5248C51.1414 33.5935 50.8141 33.6297 50.4946 33.6259C48.2946 33.603 49.2339 29.5322 49.8421 27.597L50.0846 26.8851C50.8334 24.8811 51.9748 23.4192 53.4916 21.9459C53.686 21.7569 54.862 20.5316 55.2778 20.127C55.4799 19.9305 58.1054 16.9742 58.5288 16.5677C58.8945 16.2165 59.2141 15.8157 59.549 15.434C59.7415 15.2126 62.3169 12.0979 62.7731 11.5979C63.2966 11.0254 63.8279 10.4585 64.3283 9.86499C64.9462 9.13403 65.5621 8.40116 66.128 7.63203C66.7055 6.84954 67.3868 6.17393 67.9104 5.32273C68.2492 4.77117 68.7304 4.18908 69.1134 3.60317C69.8622 2.45806 69.4868 1.53625 69.2943 1.25761C69.0845 0.952245 68.8613 0.776662 68.5956 0.507562C68.432 0.341522 68.1318 0.223194 67.9431 0.171664C66.4225 -0.242482 65.3927 0.200292 64.8827 0.377783C64.694 0.442673 64.5227 0.576268 64.3591 0.698413C64.1147 0.88163 63.2446 1.49044 63.0772 1.6374C61.7317 2.81113 60.4864 3.90662 59.3238 5.25593C58.6886 5.76742 58.165 6.59953 57.6319 7.21788C57.0294 7.9164 55.1123 10.575 54.6907 11.159C53.3742 12.9816 52.2597 14.9359 51.2068 16.915C50.6679 17.9265 50.1462 18.9457 49.6208 19.9648C49.1607 20.8523 48.7007 21.9764 47.9789 22.6844C47.5497 23.1062 46.9472 23.8143 46.3563 24.4136C46.0502 24.7246 45.8481 24.8888 45.6364 25.0911C45.5979 25.1273 45.2418 25.4594 44.9242 25.7591C44.6355 26.032 44.2428 26.3736 43.9117 26.6828C43.3997 27.1618 42.9416 27.5817 42.8723 27.6275C42.497 27.9309 42.2179 28.1409 41.7386 28.5188C41.3729 28.8069 40.8647 29.1791 40.5067 29.4253C39.987 29.7822 39.5366 30.015 39.1401 30.1563C38.4799 30.3891 37.9352 30.4616 37.6137 30.391C36.9554 30.2574 37.0613 29.4291 37.0998 29.1009C37.1479 28.6829 37.2461 28.2096 37.3577 27.784C37.4097 27.5855 37.4655 27.3966 37.5194 27.2305C37.608 26.9614 37.7196 26.6389 37.864 26.2744C37.9352 26.0969 38.0045 25.9156 38.0795 25.7266C38.2412 25.3201 38.426 24.8811 38.6916 24.3945C38.8726 24.0605 39.1343 23.3123 39.2883 23.0337C39.8369 22.0527 40.3373 21.3275 40.3758 21.2588C40.5914 20.8847 42.0947 18.835 42.1428 18.7548C42.3007 18.4876 42.1987 18.188 41.9927 18.0697C41.9176 18.0258 41.5558 17.7681 41.5211 17.7357C41.4595 17.6765 41.3671 17.6135 41.2959 17.5601C41.242 17.5181 40.9379 17.3673 40.8359 17.3158C40.7127 17.2528 40.2007 17.0486 40.1429 17.0238C39.7772 16.8673 39.1151 17.3921 38.9534 17.2891C38.861 17.2299 38.3894 16.6975 37.8832 16.3806C37.6965 16.2642 37.4078 16.1039 37.1595 15.9646C36.763 15.7432 36.3357 15.602 36.1547 15.5371C35.8718 15.4359 35.6331 15.35 35.4233 15.2813C34.7592 15.0638 34.1221 15.0981 33.4041 15.3004C32.8748 15.4493 32.4956 15.7546 32.0144 16.0047C31.3446 16.3501 30.5034 16.9379 29.978 17.3273C29.6565 17.5639 27.5604 19.1251 27.4218 19.2549C26.9887 19.6595 25.882 20.4133 25.2083 21.024C25.1486 21.0794 25.0889 21.1443 25.0293 21.2168C24.6096 21.5336 24.19 21.8504 23.7743 22.173C23.4913 22.3924 23.2411 22.652 22.9601 22.8715C22.6867 23.0852 22.4423 23.3582 22.1632 23.5643C21.5049 24.0528 21.0025 24.5796 20.3154 25.1312C20.273 25.1655 20.2172 25.1884 20.1691 25.2209C19.9862 25.3487 18.583 26.5206 18.2789 26.7209C17.9151 26.9633 15.6862 28.8451 15.2492 29.2001C14.8104 29.557 13.7402 30.4006 13.0954 30.8681C12.7701 31.1048 12.4236 31.3109 12.0925 31.5399C11.5497 31.914 11.0204 32.3072 10.4699 32.6679C9.8559 33.0706 9.22071 33.4427 8.59899 33.834C8.44693 33.9294 8.31989 34.063 8.1659 34.1527C7.84831 34.3378 7.51916 34.5 7.19772 34.6775C6.15639 35.252 5.04962 35.6661 3.89473 35.9505C3.76961 35.981 3.63873 35.9868 3.51169 36.0039C3.13827 36.0517 2.76486 36.1051 2.38952 36.1413C2.18549 36.1604 1.97761 36.149 1.77165 36.1528C1.65424 36.1547 1.5349 36.1528 1.41748 36.1604C1.10759 36.1833 0.770744 36.0097 0.48972 36.2673C0.214471 36.5192 0.0720341 36.8494 0.0104398 37.2006C-0.0203573 37.3819 0.0200639 37.5956 0.0912823 37.7693C0.241418 38.1357 0.555164 38.3304 0.930504 38.4373C1.06717 38.4774 1.21923 38.5041 1.32894 38.5842C1.60419 38.7846 1.87944 38.9698 2.22976 38.9984C2.36257 39.0098 3.90628 38.9583 4.54147 38.9049C4.90718 38.8743 5.27482 38.8514 5.63284 38.7865C6.0409 38.7102 6.43934 38.5957 6.8397 38.4869C6.95519 38.4564 7.06106 38.3858 7.1727 38.338C7.9099 38.0193 8.40266 37.8113 9.13794 37.4869C9.2438 37.441 9.57295 37.2349 9.67496 37.1796C10.0118 36.9983 10.3583 36.838 10.6893 36.6471C11.2957 36.2998 11.9001 35.9505 12.4891 35.5745C13.1647 35.1451 13.8287 34.6966 14.4812 34.2347C14.8797 33.9523 17.2992 31.8777 17.6264 31.6144C17.7727 31.496 17.9594 31.4235 18.098 31.2976C18.5484 30.8929 18.9699 30.4559 19.4319 30.0647C20.044 29.5474 20.6869 29.0684 21.3086 28.5627C21.6839 28.2573 22.0362 27.9252 22.4115 27.6199C22.5713 27.4901 22.7349 27.3641 22.8966 27.2382C22.8658 27.3737 22.8504 27.45 22.8484 27.4519C22.7233 27.6676 22.6944 27.7286 22.4134 28.263C22.1324 28.7993 21.9284 29.3432 21.7782 29.6753C21.5761 30.1181 21.4318 30.5055 21.2759 31.0036C21.1758 31.3224 21.1469 31.7861 21.0853 32.1144C21.0449 32.3262 21.0584 33.1202 21.5068 33.8149C21.682 34.0878 21.9649 34.5783 22.3076 34.8168C22.4923 34.9982 23.424 35.6184 24.9349 35.6948C25.2949 35.7138 25.599 35.7062 26.1457 35.6108C26.8001 35.4944 27.0888 35.315 27.468 35.1566C27.6085 35.0974 27.9665 34.897 28.3496 34.7004C28.7923 34.4714 29.0695 34.2328 29.2138 34.1336C29.3043 34.0706 29.6046 33.7977 29.8875 33.5515C30.2012 33.2805 31.5332 32.0457 31.5736 31.9942C31.6121 31.9445 31.9278 31.5876 32.2339 31.2918C32.6573 30.8815 33.2983 30.1219 33.5042 29.9425C33.5793 29.8776 33.9431 29.4272 33.9277 29.494C33.9046 29.599 33.8931 30.1162 33.9469 30.5704C33.9816 30.8548 34.0105 31.2327 34.124 31.5686C34.2357 31.8968 34.4051 32.5972 35.0922 33.0954C35.2443 33.2042 35.3809 33.3397 35.5503 33.4484C35.8333 33.6298 36.1643 33.7824 36.5512 33.895C36.582 33.9046 36.9554 33.9886 37.5829 33.9656C37.8813 33.9542 38.2354 33.9198 38.6377 33.8416C38.99 33.7729 39.552 33.6202 39.7965 33.5229C39.8619 33.4962 40.1121 33.3797 40.3778 33.2671C40.8648 33.0629 41.3941 32.7728 41.9677 32.4522C43.4652 31.6163 46.1137 29.1524 46.183 29.1066C46.1368 29.3623 46.2061 28.9138 46.1214 29.4329C46.0675 29.7631 45.9809 30.5227 45.9771 30.6296C45.9675 30.83 45.9482 31.1372 45.9405 31.3357C45.8962 32.2728 46.1753 32.8549 46.4679 33.5973C46.5795 33.8798 46.8182 34.2138 47.0165 34.4542C47.4996 35.042 48.0366 35.5822 48.743 35.9123C48.9894 36.0287 50.3522 36.5479 50.7718 36.5765C51.509 36.628 52.2539 36.7044 53.0027 36.4925C53.403 36.378 53.8169 36.3169 54.1961 36.1242C54.7658 35.8341 55.3567 35.5822 55.9072 35.2634C56.5309 34.9027 57.1314 34.4962 57.7262 34.0859C58.1612 33.7843 58.5789 33.4561 58.9869 33.1202C59.4758 32.7175 59.9493 32.2957 60.4286 31.8796C60.9175 31.456 61.4141 31.0418 61.8915 30.6048C62.288 30.2402 62.6595 29.849 63.0464 29.4711C63.0964 29.4234 64.8711 27.7153 65.1733 27.4462C65.1598 27.7076 63.8317 31.2689 63.8125 31.9255C63.8067 32.1678 63.7085 32.4064 63.7085 32.6469C63.7085 32.9828 63.7894 34.5573 63.9915 34.9772C64.0473 35.0936 64.4092 36.0612 65.052 36.5231C65.3196 36.7139 65.5429 36.9925 65.8297 37.1242C68.1029 38.1682 70.0085 37.2903 70.0065 37.3074C70.2548 37.1395 70.4897 36.9677 70.738 36.8151C71.2942 36.4715 71.9025 36.191 72.4068 35.7826C72.9438 35.3474 73.5559 35.0115 74.0198 34.4714C74.4837 33.9294 75.0592 33.4809 75.5789 32.9866C75.7021 32.8702 75.7964 32.7251 75.9138 32.603C76.0524 32.4598 76.2025 32.3262 76.3873 32.1487C76.3854 32.1449 77.8213 30.8109 77.9426 30.3872C77.9618 30.3204 78.0388 30.2593 78.0908 30.2173C78.4738 29.9005 79.4459 28.8241 79.8635 28.471C79.9174 28.66 79.8135 30.2899 80.3351 31.3605C80.5084 31.7155 80.6412 32.1106 80.8779 32.4503C81.0088 32.6354 81.0897 32.8625 81.2417 33.0248C81.49 33.2919 81.7499 33.5649 82.054 33.7614C82.5833 34.1031 83.1223 34.4676 83.7093 34.6756C84.2887 34.8798 84.9258 34.96 85.5495 34.9943C85.8902 35.0134 86.4291 34.8588 86.7736 34.7958C87.4396 34.6737 88.0267 34.4447 88.5849 34.1069C88.9275 33.8969 89.3163 33.6908 89.5762 33.4122C90.0632 32.8873 90.7465 32.5992 91.1584 31.9903C91.3566 31.6964 91.6954 31.4979 91.9456 31.2346C92.3614 30.7994 92.7695 30.3547 93.1602 29.8986C93.3123 29.7192 94.0129 28.723 94.1226 28.3947C94.2631 27.9729 94.6019 27.6428 94.6519 27.1885C94.6577 27.1446 94.7366 27.0778 94.7867 27.074C94.9195 27.0607 95.0561 27.0607 95.1889 27.0778C96.1398 27.1962 97.0888 27.3221 98.0396 27.4385C98.3399 27.4748 98.6421 27.4882 98.9443 27.5073C99.2118 27.5225 99.4794 27.5282 99.7469 27.5416C100.563 27.5836 101.379 27.637 102.195 27.6676C102.617 27.6828 103.038 27.6523 103.46 27.6523C104.03 27.6523 106.915 27.4977 107.591 27.4252C108.02 27.3794 108.453 27.3622 108.88 27.3049C109.515 27.2191 110.149 27.1084 110.782 27.0072C111.053 26.9633 111.325 26.9213 111.594 26.8774C112.972 26.6541 114.018 26.7572 114.659 25.3163C114.778 25.0529 114.809 24.7972 114.772 24.551ZM55.9515 14.2507C56.0978 14.0332 56.221 13.8003 56.3711 13.5847C56.7811 12.9988 57.1988 12.4167 57.6126 11.8346C57.9764 11.3231 58.3267 10.8002 58.7078 10.302C59.3469 9.46992 59.9686 8.69698 60.5614 7.84006C61.1524 6.98695 61.9107 6.05751 62.7192 5.2712C63.0502 4.94866 63.9453 3.89517 64.4534 4.00777C65.3311 4.20244 64.388 5.12997 64.1224 5.44869C63.7624 5.87811 63.3678 6.2789 62.9983 6.70068C62.929 6.77893 62.3073 7.5366 62.3361 7.52897C62.1109 7.83051 61.9358 8.08816 61.7356 8.32482C61.5046 8.59583 61.2467 8.84202 61.008 9.10731C60.6327 9.52718 60.2631 9.95278 59.8955 10.3803C59.4162 10.9357 58.9407 11.4949 58.4672 12.056C57.9706 12.6438 57.4798 13.2392 56.9736 13.8194C56.9736 13.8194 56.1016 14.747 56.0766 14.7813C55.9168 14.997 55.8437 15.0409 55.6724 15.2489C55.4222 15.5523 55.1565 15.8443 54.8909 16.1364C54.8274 16.2051 54.7446 16.2566 54.6696 16.3177C54.6445 16.2967 54.6195 16.2738 54.5945 16.2528C55.0488 15.5829 55.503 14.9187 55.9515 14.2507ZM36.095 20.4267C36.0412 20.6843 36.0758 20.8427 35.891 21.1901C35.8294 21.3046 35.8544 21.2912 35.6427 21.6882C35.4618 22.0241 35.2654 22.3924 35.1153 22.6749C35.0248 22.8448 34.8535 23.1081 34.8112 23.1902C34.7746 23.2589 34.5956 23.4116 34.2395 23.9097C33.9835 24.2685 33.6544 24.6178 33.3522 25.0357C33.1943 25.2533 32.9672 25.5682 32.8171 25.7743C32.3359 26.4328 31.9028 26.8851 31.7988 27.0034C31.462 27.3889 28.4169 30.9521 26.0552 32.1068C25.1794 32.5362 24.9523 32.6908 24.9176 32.4541C24.883 31.4178 25.5182 30.1906 25.6221 29.9673C25.6798 29.8452 26.4498 27.8794 28.0897 25.5777C28.5132 24.9842 28.8904 24.3678 29.4332 23.8257C30.2455 23.0127 30.9115 21.9859 31.8758 21.1252C32.001 21.0145 32.3032 20.7645 32.4244 20.6595C32.7555 20.3694 33.6967 19.5545 33.9835 19.3865C34.1491 19.2892 34.3088 19.2129 34.4609 19.1575C34.996 18.959 35.1827 18.9705 35.4194 19.0125C35.5215 19.0316 35.8679 19.1365 36.045 19.5602C36.1335 19.7721 36.172 20.0545 36.095 20.4267ZM91.4894 26.9156C91.3778 27.0969 91.295 27.2954 91.1699 27.4653C91.0082 27.6847 90.8331 27.8985 90.6387 28.0855C90.1074 28.5951 89.5646 29.0932 89.0199 29.5894C88.8852 29.7116 87.3742 31.0743 86.7063 31.3586C85.8343 31.7289 83.6343 32.5228 83.3321 31.1468C82.9914 29.5971 83.4495 27.5721 83.8845 26.0835C84.1405 25.2094 84.4773 24.3563 84.8912 23.5433C85.0875 23.1578 85.1433 22.8619 85.588 22.9955C85.8767 23.0814 86.2713 23.5528 86.4637 23.7761C86.7967 24.1635 87.2337 24.3926 87.6379 24.6617C87.9401 24.864 88.3039 24.9785 88.6426 25.1273C89.1161 25.3335 89.5781 25.5739 90.0689 25.7266C90.5925 25.8888 91.0641 26.2056 91.63 26.2362C91.6993 26.24 91.7666 26.2896 91.8725 26.3354C91.7243 26.5568 91.6011 26.7324 91.4894 26.9156ZM92.6578 23.2704C92.4499 23.4975 91.6704 23.2284 91.2681 23.0871C90.86 22.9459 90.4424 22.8333 90.0362 22.6864C89.6089 22.5318 88.4598 21.9726 88.3174 21.8676C87.4069 21.1824 88.1788 20.9763 88.9622 20.9763C89.5781 20.9782 90.4347 20.9992 90.9986 21.2836C91.6088 21.5928 92.2113 22.0909 92.5539 22.6883C92.731 22.9994 92.7444 23.1768 92.6578 23.2704Z" fill="#004A73"/>
</svg>
