<svg width="104" height="30" viewBox="0 0 104 30" fill="none" xmlns="http://www.w3.org/2000/svg">
<path d="M26.612 11.4244C26.612 11.4244 29.427 9.0407 32.8514 9.0407V13.6046C26.1767 13.5174 26.612 18.8953 26.612 18.8953V29.4477H22.491V9.38953H26.612V11.4244ZM50.8443 9.4186H54.9072V20.5814C54.9072 25.6977 50.8733 30 45.7657 30C40.658 30 36.6241 25.6977 36.6241 20.5814V9.4186H40.658V20.5814C40.658 23.4012 42.9506 25.7849 45.7657 25.7849C48.5807 25.7849 50.8733 23.4012 50.8733 20.5814L50.8443 9.4186ZM58.9411 29.4767V9.4186H63.062V29.564H58.9411V29.4767ZM10.2733 13.1105C6.84889 13.1105 4.03388 15.9302 4.03388 19.3605C4.03388 22.7907 6.84889 25.6105 10.2733 25.6105C12.3918 25.6105 14.2201 24.564 15.468 22.8779L18.7184 25.3488C16.6869 28.0814 13.6107 29.7384 10.2733 29.7384C4.55625 29.8256 0 25.1744 0 19.3605C0 13.5465 4.64331 8.98256 10.2733 8.98256C13.6107 8.98256 16.861 10.6395 18.7184 13.3721L15.468 15.843C14.3072 14.157 12.3918 13.1105 10.2733 13.1105ZM88.0778 17.5H100.034C98.9026 12.5872 94.0561 12.7616 94.0561 12.7616C94.0561 12.7616 89.674 12.4128 88.0778 17.5ZM93.969 9.06977C93.969 9.06977 104.504 8.72093 103.981 20.9593H87.9908C88.339 22.4419 89.0355 23.6919 90.1964 24.7384C91.3282 25.7849 92.8372 26.3081 94.4914 26.3081C94.4914 26.3081 97.9159 26.4826 99.9473 23.5756L102.936 25.7849C102.153 26.9186 100.818 27.907 99.0767 28.7791C97.5966 29.4767 95.8264 29.9128 94.1722 29.9128C88.4551 29.9128 84.16 25.2616 84.16 19.5349C84.044 13.7209 88.4551 9.06977 93.969 9.06977ZM79.4877 19.3605C79.4877 19.3605 81.6933 20.6686 81.6062 23.75C81.6062 23.75 81.7803 28.0523 77.05 29.4767C77.05 29.4767 71.42 31.3372 66.8637 26.7442L68.9822 23.8372C73.6255 27.7035 76.7017 25.4942 76.7017 25.4942C77.2241 25.0581 77.4853 24.5349 77.4853 23.9244C77.4853 22.3546 75.4538 21.8023 75.4538 21.8023C74.8444 21.6279 74.235 21.3663 73.4224 21.1919C73.4224 21.1919 70.9556 20.5814 69.1273 19.4186C68.5179 18.9826 67.9955 18.4593 67.5602 17.7616C67.1249 17.064 66.9508 16.1919 66.9508 15.1163C66.9508 15.1163 66.7766 11.1628 70.4623 9.47674C70.4623 9.47674 75.657 7.26744 80.4744 11.1337L78.3559 14.2151C76.1503 12.5581 73.9738 12.6453 73.9738 12.6453C73.0161 12.6453 72.4067 12.8198 71.8553 13.2558C71.42 13.6919 71.1588 14.0407 71.1588 14.564C71.1588 14.564 70.9846 15.7849 73.1902 16.686C73.7997 16.8605 74.4091 17.1221 75.2217 17.2965C75.9182 17.4709 76.7017 17.8198 77.4272 17.9942C78.1528 18.5756 78.8783 19.0116 79.4877 19.3605ZM60.9435 0C62.5106 0 63.7585 1.22093 63.7585 2.90698C63.7585 4.56395 62.5396 5.81395 60.9435 5.81395C59.3473 5.81395 58.1285 4.59302 58.1285 2.90698C58.1575 1.22093 59.3764 0 60.9435 0Z" fill="#FF4D37"/>
</svg>
