<svg width="177" height="32" viewBox="0 0 177 32" fill="none" xmlns="http://www.w3.org/2000/svg">
<path d="M18.4402 13.4386C19.7421 13.6828 20.6592 14.2332 21.1955 15.0821C21.7319 15.9348 22 17.276 22 19.1055C22 22.7413 20.9041 25.7143 18.7122 28.0323C16.5204 30.3463 13.7184 31.5053 10.3063 31.5053C8.96167 31.5053 7.65589 31.265 6.38898 30.7805C5.12206 30.2959 4.03392 29.6215 3.12454 28.7571C2.08302 27.8036 1.30189 26.7997 0.781134 25.7376C0.260378 24.6794 0 23.5941 0 22.4816C0 21.2413 0.26815 20.2839 0.804451 19.6055C1.33687 18.9272 2.18407 18.466 3.34217 18.2179C3.12454 17.714 2.9652 17.2876 2.86416 16.9426C2.76312 16.5977 2.71259 16.3302 2.71259 16.1403C2.71259 15.493 3.05458 14.8263 3.74245 14.1479C4.43031 13.4696 5.07543 13.1324 5.68557 13.1324C5.94595 13.1324 6.22187 13.1789 6.50945 13.2719C6.79703 13.3649 7.13125 13.52 7.50821 13.7371C6.39286 10.5935 5.58453 8.16704 5.07931 6.45766C4.5741 4.74828 4.3215 3.56993 4.3215 2.91874C4.3215 2.02335 4.47695 1.34115 4.92775 0.806238C5.47571 0.155046 6.30348 0 7.10016 0C8.70906 0 9.28423 1.37603 12.0629 9.08956C12.436 10.1245 12.7002 10.9269 12.8868 11.4928C13.0461 11.047 13.2715 10.4113 13.5591 9.58958C15.6421 3.58543 16.5282 0.585298 18.9376 0.585298C19.676 0.585298 20.2629 0.833371 20.7059 1.33339C21.145 1.82954 21.3665 2.50011 21.3665 3.33348C21.3665 3.96917 21.1256 5.12814 20.6398 6.81814C20.1579 8.50426 19.4234 10.7098 18.4402 13.4386ZM2.90691 22.2646C3.10899 22.5088 3.39269 22.8693 3.75411 23.346C4.71012 24.66 5.5923 25.3151 6.40064 25.3151C6.67656 25.3151 6.92139 25.2298 7.13902 25.0554C7.35665 24.881 7.46547 24.7027 7.46547 24.5127C7.46547 24.2957 7.32167 23.9352 7.03021 23.4313C6.73874 22.9274 6.34234 22.3576 5.83713 21.7219C5.25808 20.9854 4.77619 20.4505 4.39534 20.1094C4.0106 19.7722 3.70359 19.6017 3.4743 19.6017C2.96909 19.6017 2.50274 19.873 2.07525 20.4118C1.64777 20.9544 1.43402 21.5901 1.43402 22.3266C1.43402 22.9196 1.5817 23.5786 1.87705 24.3073C2.17241 25.036 2.60378 25.7686 3.16728 26.5051C4.02226 27.6447 5.07931 28.5207 6.34623 29.1331C7.61314 29.7455 9.01219 30.0518 10.5434 30.0518C13.3648 30.0518 15.7237 29.0013 17.628 26.9043C19.5284 24.8073 20.4805 22.1754 20.4805 19.0164C20.4805 18.0512 20.4066 17.2837 20.2629 16.7101C20.1191 16.1403 19.8781 15.7255 19.5478 15.4658C18.9532 14.9774 17.8029 14.5355 16.089 14.1441C14.3752 13.7564 12.5836 13.5588 10.7182 13.5588C10.1975 13.5588 9.8283 13.644 9.61067 13.8185C9.39304 13.9929 9.28423 14.2875 9.28423 14.7061C9.28423 15.6868 9.83218 16.3961 10.932 16.838C12.0318 17.2799 13.8117 17.4969 16.2678 17.4969H17.1577C17.3598 17.4969 17.5231 17.5744 17.6474 17.7256C17.7718 17.8768 17.8534 18.1055 17.8961 18.4078C17.6513 18.6404 17.1422 18.904 16.3766 19.1985C15.611 19.4931 15.0242 19.7877 14.62 20.0746C13.7534 20.7102 13.0539 21.4622 12.5253 22.3343C11.9968 23.2065 11.7326 24.0321 11.7326 24.8112C11.7326 25.288 11.8453 25.8616 12.0707 26.5322C12.2961 27.2028 12.4088 27.6175 12.4088 27.7765V27.9276L12.366 28.1214C11.7287 28.0788 11.2273 27.7067 10.8582 27.009C10.489 26.3113 10.3063 25.3771 10.3063 24.2065V24.0127C10.1897 24.1135 10.077 24.1871 9.9682 24.2298C9.85939 24.2724 9.73892 24.2957 9.61067 24.2957C9.47854 24.2957 9.35806 24.284 9.24148 24.2647C9.12489 24.2414 8.99664 24.2104 8.85285 24.1678C8.8956 24.3267 8.93058 24.4817 8.95001 24.6329C8.97333 24.7841 8.9811 24.9042 8.9811 24.9895C8.9811 25.5244 8.77124 25.9818 8.35153 26.3617C7.93181 26.7454 7.43438 26.9353 6.85533 26.9353C5.94595 26.9353 5.01713 26.4934 4.07666 25.6058C3.1362 24.7182 2.66596 23.8499 2.66596 22.9972C2.66596 22.8382 2.68539 22.6987 2.72037 22.5747C2.75923 22.4545 2.82141 22.3499 2.90691 22.2646ZM9.41636 22.784C9.66119 22.784 9.88659 22.6716 10.0887 22.4468C10.2908 22.2219 10.3918 21.9816 10.3918 21.7219C10.3918 21.4467 10.1936 20.811 9.79332 19.8071C9.39693 18.8032 8.89949 17.8186 8.30878 16.8535C7.87352 16.1325 7.44992 15.586 7.03021 15.2216C6.61049 14.8534 6.2141 14.6712 5.83713 14.6712C5.534 14.6712 5.1959 14.8611 4.82671 15.2449C4.45752 15.6247 4.27486 15.9813 4.27486 16.3147C4.27486 16.6597 4.45752 17.1791 4.81894 17.8729C5.18036 18.5667 5.66614 19.2993 6.27239 20.0784C6.90973 20.9312 7.50821 21.594 8.07172 22.0708C8.63522 22.5475 9.08214 22.784 9.41636 22.784ZM11.5421 12.3339L9.19873 5.58165C8.59248 3.86452 8.12224 2.74431 7.78802 2.21715C7.45381 1.69 7.09239 1.42642 6.70376 1.42642C6.40064 1.42642 6.1558 1.54271 5.96538 1.7714C5.77884 2.00397 5.68168 2.31406 5.68168 2.70167C5.68168 3.36449 5.93429 4.51958 6.4395 6.16307C6.94471 7.80656 7.70641 9.96557 8.71684 12.6324C8.80233 12.4734 8.92669 12.361 9.08603 12.2951C9.24536 12.2292 9.46299 12.1982 9.73503 12.1982C9.82053 12.1982 9.99541 12.206 10.2558 12.2215C10.52 12.2409 10.9475 12.2758 11.5421 12.3339ZM13.9943 18.8885C13.3725 18.8613 12.7818 18.7954 12.2261 18.6946C11.6704 18.5939 11.138 18.4505 10.6328 18.2605C10.862 18.7218 11.068 19.183 11.2507 19.6443C11.4333 20.1056 11.581 20.5591 11.6937 21.0087C12.0396 20.5746 12.4049 20.1831 12.7896 19.8304C13.1705 19.4776 13.5746 19.1637 13.9943 18.8885ZM16.8779 13.0704C17.8456 10.4462 18.6034 8.27945 19.1436 6.57007C19.6877 4.86069 19.9558 3.81025 19.9558 3.42264C19.9558 3.00401 19.8665 2.67842 19.6838 2.44972C19.5011 2.22103 19.2524 2.10475 18.9338 2.10475C18.5296 2.10475 18.1176 2.44197 17.6979 3.11254C17.2782 3.78312 16.8158 4.86069 16.3105 6.34912L14.1459 12.5936L16.8779 13.0704Z" fill="black"/>
<path d="M33.3102 8.48975L39.3395 23.2673H36.2195L34.7415 19.6088H28.4546L27.0234 23.2673H24.0673L30.0498 8.48975H33.3102ZM29.3444 17.3551H33.8488L31.6098 11.8205H31.5161L29.3444 17.3551Z" fill="black"/>
<path d="M42.9542 23.2673H40.1385V12.921H42.9542V14.6098C43.4722 13.439 44.7834 12.64 46.3317 12.64C49.1005 12.64 50.1103 14.5161 50.1103 16.8166V23.2556H47.2946V17.3786C47.2946 15.7834 46.6625 14.8703 45.2781 14.8703C43.8468 14.8703 42.9542 15.9942 42.9542 17.7298V23.2673Z" fill="black"/>
<path d="M56.2888 19.679C55.5128 19.6964 54.7405 19.5683 54.0117 19.3014C53.8827 19.3799 53.7761 19.4904 53.7023 19.6222C53.6285 19.754 53.5899 19.9026 53.5902 20.0536C53.5902 20.5219 53.8829 20.8263 54.6702 20.8263H58.7971C61.0976 20.8263 62.2683 22.0702 62.2683 23.7356C62.2683 26.317 59.2654 27.3941 56.0546 27.3941C53.1922 27.3941 50.7512 26.6682 50.7512 24.7453C50.7512 23.6887 51.5971 22.9395 52.8 22.7726C52.3861 22.6573 52.0217 22.4087 51.7635 22.0653C51.5053 21.7218 51.3676 21.3028 51.3717 20.8731C51.3717 19.9365 52.0273 19.2312 53.0371 18.8243C52.5944 18.5388 52.2311 18.1459 51.9809 17.6823C51.7306 17.2187 51.6016 16.6994 51.6059 16.1726C51.6059 13.9687 53.5522 12.6312 56.2742 12.6312C57.4357 12.6016 58.5795 12.9207 59.5581 13.5473C59.8692 13.1051 60.279 12.7413 60.755 12.4848C61.2309 12.2283 61.7601 12.086 62.3005 12.0692V14.3199C61.6947 14.3238 61.0933 14.4226 60.518 14.6126C60.8125 15.0838 60.9677 15.6287 60.9659 16.1843C60.9805 18.3414 59.0078 19.679 56.2888 19.679ZM56.0546 25.6819C58.1034 25.6819 59.6195 25.2136 59.6195 24.2185C59.6195 23.5395 59.0546 23.2819 58.1181 23.2819H54.6702C53.9181 23.2819 53.3093 23.5746 53.3093 24.3356C53.3093 25.2604 54.3863 25.6819 56.0546 25.6819ZM56.3122 14.3521C55.2556 14.3521 54.5298 14.9873 54.5298 16.1814C54.5298 17.3756 55.2556 18.0107 56.3122 18.0107C57.3688 18.0107 58.1181 17.3785 58.1181 16.1814C58.1181 14.9843 57.3893 14.3521 56.3122 14.3521Z" fill="black"/>
<path d="M72.9688 19.8898C72.4303 22.1873 70.6478 23.5483 67.9932 23.5483C64.8029 23.5483 62.5054 21.4995 62.5054 18.2478C62.5054 14.9961 64.8263 12.64 67.9229 12.64C71.3005 12.64 73.0361 14.9815 73.0361 17.8V18.8098H65.2683C65.3032 19.5261 65.6177 20.2002 66.1441 20.6872C66.6706 21.1742 67.367 21.4354 68.0839 21.4146C69.4683 21.4146 70.2907 20.8293 70.6888 19.6586L72.9688 19.8898ZM70.2966 17.0507C70.2029 15.8537 69.4742 14.7093 67.9025 14.7093C66.3307 14.7093 65.5815 15.7659 65.3239 17.0507H70.2966Z" fill="black"/>
<path d="M76.9756 8.48975V23.2673H74.1629V8.48975H76.9756Z" fill="black"/>
<path d="M81.6585 8.48975V20.8263H87.2195V23.2673H78.7317V8.48975H81.6585Z" fill="black"/>
<path d="M87.881 8.48975H90.7668V11.2322H87.881V8.48975ZM90.7317 12.921V23.2673H87.9161V12.921H90.7317Z" fill="black"/>
<path d="M94.0947 19.7493C94.2586 20.9903 95.1952 21.6254 96.6264 21.6254C97.6595 21.6254 98.5025 21.2742 98.5025 20.522C98.5025 19.8195 98.0342 19.5151 97.001 19.3512L95.3591 19.0585C93.1552 18.7073 91.9347 17.8878 91.9347 15.962C91.9347 13.9922 93.6 12.6312 96.2283 12.6312C99.0908 12.6312 100.803 13.922 100.99 16.2195L98.6664 16.3132C98.479 15.1424 97.683 14.5571 96.2049 14.5571C95.1952 14.5571 94.5395 15.0049 94.5395 15.7073C94.5395 16.2693 94.9142 16.5854 95.6664 16.7171L97.6361 17.0449C99.8166 17.3961 101.107 18.3122 101.107 20.2644C101.107 22.3746 99.2781 23.5483 96.603 23.5483C93.9278 23.5483 91.841 22.3776 91.6537 19.8429L94.0947 19.7493Z" fill="black"/>
<path d="M102.618 14.8936H101.139V13.2253L101.845 13.1082C102.852 12.9443 103.133 12.4292 103.37 11.4663L103.698 10.0614H105.41V12.9209H108.225V14.8936H105.41V20.0068C105.41 20.8848 105.808 21.2975 106.654 21.2975C107.267 21.2581 107.866 21.0895 108.41 20.8029V22.6555C107.588 23.2767 106.576 23.5923 105.547 23.5482C103.952 23.5482 102.62 22.8458 102.62 20.639L102.618 14.8936Z" fill="black"/>
<path d="M114.56 8.72V23H116.46V16.9H121.1C121.567 16.9 121.94 16.9733 122.22 17.12C122.5 17.2533 122.727 17.44 122.9 17.68C123.073 17.9067 123.2 18.18 123.28 18.5C123.36 18.8067 123.427 19.1333 123.48 19.48C123.547 19.8267 123.587 20.18 123.6 20.54C123.613 20.9 123.627 21.24 123.64 21.56C123.653 21.8667 123.68 22.1467 123.72 22.4C123.773 22.6533 123.867 22.8533 124 23H126.12C125.92 22.76 125.767 22.4867 125.66 22.18C125.567 21.86 125.493 21.5267 125.44 21.18C125.387 20.8333 125.353 20.48 125.34 20.12C125.327 19.76 125.307 19.4067 125.28 19.06C125.24 18.7133 125.18 18.38 125.1 18.06C125.033 17.74 124.92 17.4533 124.76 17.2C124.613 16.9333 124.407 16.7067 124.14 16.52C123.887 16.3333 123.553 16.2 123.14 16.12V16.08C124.007 15.84 124.633 15.3933 125.02 14.74C125.42 14.0867 125.62 13.3267 125.62 12.46C125.62 11.3 125.233 10.3867 124.46 9.72C123.7 9.05333 122.64 8.72 121.28 8.72H114.56ZM120.42 15.3H116.46V10.32H121.18C122.073 10.32 122.72 10.5467 123.12 11C123.52 11.4533 123.72 12.04 123.72 12.76C123.72 13.28 123.627 13.7067 123.44 14.04C123.267 14.36 123.027 14.62 122.72 14.82C122.427 15.0067 122.08 15.1333 121.68 15.2C121.28 15.2667 120.86 15.3 120.42 15.3Z" fill="black"/>
<path d="M135.151 16.84H129.211C129.238 16.44 129.325 16.0667 129.471 15.72C129.618 15.36 129.818 15.0467 130.071 14.78C130.325 14.5133 130.625 14.3067 130.971 14.16C131.331 14 131.731 13.92 132.171 13.92C132.598 13.92 132.985 14 133.331 14.16C133.691 14.3067 133.998 14.5133 134.251 14.78C134.518 15.0333 134.725 15.34 134.871 15.7C135.031 16.06 135.125 16.44 135.151 16.84ZM136.791 19.72H135.111C134.965 20.4 134.658 20.9067 134.191 21.24C133.738 21.5733 133.151 21.74 132.431 21.74C131.871 21.74 131.385 21.6467 130.971 21.46C130.558 21.2733 130.218 21.0267 129.951 20.72C129.685 20.4 129.491 20.04 129.371 19.64C129.251 19.2267 129.198 18.7933 129.211 18.34H136.951C136.978 17.7133 136.918 17.0533 136.771 16.36C136.638 15.6667 136.385 15.0267 136.011 14.44C135.651 13.8533 135.165 13.3733 134.551 13C133.951 12.6133 133.191 12.42 132.271 12.42C131.565 12.42 130.911 12.5533 130.311 12.82C129.725 13.0867 129.211 13.46 128.771 13.94C128.345 14.42 128.011 14.9867 127.771 15.64C127.531 16.2933 127.411 17.0133 127.411 17.8C127.438 18.5867 127.551 19.3133 127.751 19.98C127.965 20.6467 128.278 21.22 128.691 21.7C129.105 22.18 129.611 22.5533 130.211 22.82C130.825 23.0867 131.545 23.22 132.371 23.22C133.545 23.22 134.518 22.9267 135.291 22.34C136.065 21.7533 136.565 20.88 136.791 19.72Z" fill="black"/>
<path d="M145.734 15.98H147.494C147.427 15.3667 147.267 14.84 147.014 14.4C146.76 13.9467 146.434 13.5733 146.034 13.28C145.647 12.9867 145.194 12.7733 144.674 12.64C144.167 12.4933 143.62 12.42 143.034 12.42C142.22 12.42 141.507 12.5667 140.894 12.86C140.28 13.14 139.767 13.5333 139.354 14.04C138.954 14.5333 138.654 15.12 138.454 15.8C138.254 16.4667 138.154 17.1867 138.154 17.96C138.154 18.7333 138.254 19.4467 138.454 20.1C138.667 20.74 138.974 21.2933 139.374 21.76C139.787 22.2267 140.294 22.5867 140.894 22.84C141.507 23.0933 142.207 23.22 142.994 23.22C144.314 23.22 145.354 22.8733 146.114 22.18C146.887 21.4867 147.367 20.5 147.554 19.22H145.814C145.707 20.02 145.414 20.64 144.934 21.08C144.467 21.52 143.814 21.74 142.974 21.74C142.44 21.74 141.98 21.6333 141.594 21.42C141.207 21.2067 140.894 20.9267 140.654 20.58C140.414 20.22 140.234 19.8133 140.114 19.36C140.007 18.9067 139.954 18.44 139.954 17.96C139.954 17.44 140.007 16.94 140.114 16.46C140.22 15.9667 140.394 15.5333 140.634 15.16C140.887 14.7867 141.22 14.4867 141.634 14.26C142.047 14.0333 142.56 13.92 143.174 13.92C143.894 13.92 144.467 14.1 144.894 14.46C145.32 14.82 145.6 15.3267 145.734 15.98Z" fill="black"/>
<path d="M149.396 12.66V23H151.096V18.4C151.096 17.7333 151.162 17.1467 151.296 16.64C151.429 16.12 151.642 15.68 151.936 15.32C152.229 14.96 152.616 14.6867 153.096 14.5C153.576 14.3133 154.156 14.22 154.836 14.22V12.42C153.916 12.3933 153.156 12.58 152.556 12.98C151.956 13.38 151.449 14 151.036 14.84H150.996V12.66H149.396Z" fill="black"/>
<path d="M164.676 23V12.66H162.976V18.5C162.976 18.9667 162.909 19.4 162.776 19.8C162.656 20.1867 162.469 20.5267 162.216 20.82C161.963 21.1133 161.643 21.34 161.256 21.5C160.883 21.66 160.436 21.74 159.916 21.74C159.263 21.74 158.749 21.5533 158.376 21.18C158.003 20.8067 157.816 20.3 157.816 19.66V12.66H156.116V19.46C156.116 20.02 156.169 20.5333 156.276 21C156.396 21.4533 156.596 21.8467 156.876 22.18C157.156 22.5133 157.523 22.7733 157.976 22.96C158.429 23.1333 158.996 23.22 159.676 23.22C160.436 23.22 161.096 23.0733 161.656 22.78C162.216 22.4733 162.676 22 163.036 21.36H163.076V23H164.676Z" fill="black"/>
<path d="M169.029 10.8V8.72H167.329V10.8H169.029ZM167.329 12.66V23H169.029V12.66H167.329Z" fill="black"/>
<path d="M174.023 12.66V9.56H172.323V12.66H170.563V14.16H172.323V20.74C172.323 21.22 172.369 21.6067 172.463 21.9C172.556 22.1933 172.696 22.42 172.883 22.58C173.083 22.74 173.336 22.8533 173.643 22.92C173.963 22.9733 174.343 23 174.783 23H176.083V21.5H175.303C175.036 21.5 174.816 21.4933 174.643 21.48C174.483 21.4533 174.356 21.4067 174.263 21.34C174.169 21.2733 174.103 21.18 174.063 21.06C174.036 20.94 174.023 20.78 174.023 20.58V14.16H176.083V12.66H174.023Z" fill="black"/>
</svg>
