<svg width="104" height="38" viewBox="0 0 104 38" fill="none" xmlns="http://www.w3.org/2000/svg">
<path d="M50.5095 18.5H49.0272V15.1991H50.3747C52.011 15.1991 52.8195 15.7461 52.8195 16.859C52.8003 17.953 52.0302 18.5 50.5095 18.5ZM54.6483 13.0676C53.782 12.3697 52.2997 12.0113 50.2207 12.0113H45.4851V26.1394H49.0079V21.7067H50.5865C52.5115 21.7067 53.9168 21.2917 54.8023 20.4806C55.8033 19.5563 56.3231 18.3491 56.3231 16.8213C56.3231 15.2368 55.7648 13.973 54.6483 13.0676ZM62.3677 12.0113H58.6909V26.1394H66.622V22.9327H62.3677V12.0113ZM73.7832 21.2162L75.304 16.3874L76.7863 21.2162H73.7832ZM73.8217 12.0113L68.0466 26.1394H72.0122L72.7629 24.0833H77.7873L78.4803 26.1394H82.4844L76.7478 12.0113H73.8217ZM84.3132 26.1394H87.99V12.0113H84.3132V26.1394ZM96.3832 22.9327H94.8046V15.1991H96.4024C97.5189 15.1991 98.3852 15.5386 99.0012 16.2177C99.598 16.8967 99.906 17.8587 99.906 19.1225C99.906 21.6689 98.7317 22.9327 96.3832 22.9327ZM102.255 14.6521C101.773 13.973 101.177 13.426 100.503 13.011C99.3862 12.332 97.8847 11.9925 95.9597 11.9925H91.1086V26.1205H96.7682C98.8087 26.1205 100.464 25.4792 101.696 24.1777C102.928 22.8761 103.564 21.1597 103.564 19.0093C103.583 17.3117 103.14 15.8593 102.255 14.6521ZM35.8599 34.8539L38.94 23.0836L34.7819 19.0093L38.94 14.9162L35.8599 3.14594L23.8477 0.12793L19.6896 4.2211L15.5122 0.146792L3.49999 3.1648L0.419922 14.935L4.59726 19.0093L0.419922 23.1025L3.49999 34.8727L15.5122 37.8907L19.6896 33.7976L23.8477 37.8719L35.8599 34.8539ZM22.0574 31.4397L26.023 27.5541L31.0666 32.496L24.7524 34.0805L22.0574 31.4397ZM15.7047 12.7658L19.6703 8.88015L23.6359 12.7658L19.6703 16.6515L15.7047 12.7658ZM17.3025 18.9905L13.3369 22.8761L9.37136 18.9905L13.3369 15.1048L17.3025 18.9905ZM26.023 15.1048L29.9885 18.9905L26.023 22.8761L22.0574 18.9905L26.023 15.1048ZM23.6552 25.2151L19.6896 29.1008L15.724 25.2151L19.6896 21.3294L23.6552 25.2151ZM14.5882 34.0805L8.27408 32.496L13.3177 27.5541L17.2833 31.4397L14.5882 34.0805ZM6.98431 21.3294L10.9499 25.2151L5.90629 30.1571L4.28925 23.9702L6.98431 21.3294ZM5.88704 7.82384L10.9306 12.7658L6.98431 16.6704L4.28925 14.0296L5.88704 7.82384ZM17.3025 6.56005L13.3369 10.4457L8.29334 5.50375L14.6075 3.9193L17.3025 6.56005ZM24.7524 3.90044L31.0666 5.48489L26.023 10.4269L22.0574 6.56005L24.7524 3.90044ZM32.3756 16.6704L28.41 12.7847L33.4536 7.84271L35.0706 14.0296L32.3756 16.6704ZM33.4536 30.1759L28.41 25.234L32.3756 21.3483L35.0706 23.989L33.4536 30.1759Z" fill="black"/>
</svg>
