<svg xmlns="http://www.w3.org/2000/svg" height="24" width="25" viewBox="0 0 21.9 31.4">
<path d="M13.7504,2.1204 C10.7495056,-0.69128159 5.88552715,-0.68993841 2.88640008,2.12340008 C-0.112726993,4.93673856 -0.11129434,9.49671833 2.8896,12.3084 C5.83726449,15.0128027 10.5255588,15.0857763 13.56736,12.4746 C14.2093574,11.911688 14.7441806,11.2501932 15.1488,10.5186 C15.5354899,9.81474639 15.7950097,9.05565085 15.9168,8.2722 C15.971697,7.92194135 15.9995029,7.56841928 16.0000286,7.2144 C16.0055719,5.30294151 15.1955684,3.4687675 13.7504,2.1204 Z M4.02688,3.1752 C6.14019983,1.23501468 9.42631399,0.977321397 11.85408,2.5614 C11.8939673,2.58868613 11.9191268,2.63096472 11.9229421,2.67711749 C11.9267574,2.72327026 11.9088467,2.76867817 11.87392,2.8014 L3.62688,10.5366 C3.59187562,10.5691509 3.54349469,10.5858101 3.49433841,10.5822386 C3.44518212,10.5786671 3.40011678,10.5552184 3.37088,10.518 C1.64583935,8.24906642 1.92328766,5.14350627 4.02688,3.1752 Z M12.63936,11.2536 C10.5380299,13.21872 7.23185819,13.477965 4.81152,11.8674 C4.77154291,11.840208 4.74625881,11.7979783 4.74232014,11.751822 C4.73838146,11.7056656 4.75618262,11.6602046 4.79104,11.6274 L13.03872,3.8916 C13.0737244,3.85904908 13.1221053,3.84238986 13.1712616,3.84596137 C13.2204179,3.84953288 13.2654832,3.87298156 13.29472,3.9102 C15.0204611,6.17896841 14.7435438,9.28489888 12.64,11.2536 L12.63936,11.2536 Z" id="Shape"></path>
</svg>