<svg eight="16" viewBox="0 0 16 16" width="16">
<path d="M2.56684 4.23096H13.1765C14.3177 4.23096 15.2433 5.15669 15.2433 6.29921V12.2062C15.2433 13.3487 14.3177 14.2744 13.1765 14.2744H2.56684C1.42562 14.2744 0.5 13.3487 0.5 12.2062V6.29921C0.5 5.15669 1.42562 4.23096 2.56684 4.23096Z" stroke="currentColor"></path><mask fill="white" id="path-2-inside-1"><path clip-rule="evenodd" d="M4.87891 3.90224C4.87891 2.4837 5.44618 1.33398 6.14522 1.33398H9.6019C10.3009 1.33398 10.8682 2.4837 10.8682 3.90224" fill-rule="evenodd"></path></mask><path d="M6.47891 3.90224C6.47891 3.38456 6.5858 2.9948 6.68491 2.79385C6.73437 2.69354 6.75182 2.70076 6.69421 2.75018C6.62637 2.80838 6.4365 2.93398 6.14522 2.93398V-0.266016C4.85136 -0.266016 4.12376 0.752284 3.81494 1.37847C3.45565 2.10701 3.27891 3.00138 3.27891 3.90224H6.47891ZM6.14522 2.93398H9.6019V-0.266016H6.14522V2.93398ZM9.6019 2.93398C9.31062 2.93398 9.12075 2.80838 9.05291 2.75018C8.9953 2.70076 9.01274 2.69354 9.06221 2.79385C9.16132 2.9948 9.26821 3.38456 9.26821 3.90224H12.4682C12.4682 3.00138 12.2915 2.10701 11.9322 1.37847C11.6234 0.752284 10.8958 -0.266016 9.6019 -0.266016V2.93398Z" fill="currentColor" mask="url(#path-2-inside-1)"></path><path d="M8.727 7.54053H7.01577C6.54323 7.54053 6.16016 7.92381 6.16016 8.39661C6.16016 8.86941 6.54323 9.2527 7.01577 9.2527H8.727C9.19954 9.2527 9.58262 8.86941 9.58262 8.39661C9.58262 7.92381 9.19954 7.54053 8.727 7.54053Z" fill="currentColor"></path>
<path d="M0.597656 11.1792H15.2643" stroke="currentColor"></path>
</svg>